<svg width="11" height="19" viewBox="0 0 11 19" fill="none" xmlns="http://www.w3.org/2000/svg">
<path d="M0.576172 9.24414C0.576172 9.0293 0.651367 8.84668 0.8125 8.69629L9.40625 0.510742C9.5459 0.371094 9.72852 0.295898 9.93262 0.295898C10.3516 0.295898 10.6738 0.618164 10.6738 1.03711C10.6738 1.24121 10.5879 1.42383 10.4697 1.56348L2.3916 9.24414L10.4697 16.9248C10.5879 17.0537 10.6738 17.2363 10.6738 17.4404C10.6738 17.8701 10.3516 18.1816 9.93262 18.1816C9.72852 18.1816 9.5459 18.1064 9.40625 17.9668L0.8125 9.79199C0.651367 9.6416 0.576172 9.45898 0.576172 9.24414Z" fill="white"/>
</svg>
