<svg width="18" height="11" viewBox="0 0 18 11" fill="none" xmlns="http://www.w3.org/2000/svg">
<path d="M8.98926 10.6475C8.76367 10.6475 8.58105 10.5508 8.40918 10.3896L0.266602 1.81738C0.126953 1.66699 0.0410156 1.49512 0.0410156 1.28027C0.0410156 0.861328 0.363281 0.539062 0.782227 0.539062C0.986328 0.539062 1.17969 0.614258 1.30859 0.753906L9 8.83203L16.6699 0.753906C16.8096 0.614258 17.0137 0.539062 17.207 0.539062C17.626 0.539062 17.9482 0.861328 17.9482 1.28027C17.9482 1.49512 17.8623 1.66699 17.7227 1.80664L9.58008 10.3789C9.41895 10.5508 9.21484 10.6475 8.98926 10.6475Z" fill="white"/>
</svg>
