<svg width="16" height="14" viewBox="0 0 16 14" fill="none" xmlns="http://www.w3.org/2000/svg">
<path d="M0.690427 6.67481L0.710935 5.7793C1.77278 6.20313 2.90071 6.51302 4.09472 6.70899C5.28873 6.90495 6.54655 7.00293 7.86816 7.00293C9.19433 7.00293 10.4544 6.90723 11.6484 6.71582C12.8424 6.51986 13.9704 6.21452 15.0322 5.79981L15.0527 6.67481C13.9362 7.07129 12.7786 7.36068 11.5801 7.54297C10.3815 7.72526 9.1442 7.81641 7.86816 7.81641C6.59668 7.81641 5.35937 7.72526 4.15625 7.54297C2.95768 7.36068 1.80241 7.07129 0.690427 6.67481ZM6.8291 9.00586C6.35514 9.00586 6.11816 8.77344 6.11816 8.3086L6.11816 7.37891L9.61816 7.37891L9.61816 8.3086C9.61816 8.77344 9.38118 9.00586 8.90722 9.00586L6.8291 9.00586ZM2.06445 13.5791C1.41731 13.5791 0.931961 13.4196 0.608394 13.1006C0.284826 12.7861 0.123042 12.3031 0.123043 11.6514L0.123044 4.9043C0.123044 4.25716 0.284828 3.77637 0.608396 3.46192C0.931964 3.1429 1.41732 2.9834 2.06445 2.9834L13.6719 2.9834C14.3236 2.9834 14.8112 3.14291 15.1348 3.46192C15.4583 3.77637 15.6201 4.25717 15.6201 4.9043L15.6201 11.6514C15.6201 12.3031 15.4583 12.7861 15.1348 13.1006C14.8112 13.4196 14.3236 13.5791 13.6719 13.5791L2.06445 13.5791ZM2.07128 12.7451L13.665 12.7451C14.0387 12.7451 14.3167 12.6517 14.499 12.4648C14.6859 12.2826 14.7793 12 14.7793 11.6172L14.7793 4.94532C14.7793 4.5625 14.6859 4.27995 14.499 4.09766C14.3167 3.91081 14.0387 3.81739 13.665 3.81739L2.07129 3.81738C1.70215 3.81738 1.42415 3.91081 1.2373 4.09766C1.05501 4.27995 0.963865 4.5625 0.963865 4.94531L0.963863 11.6172C0.963863 12 1.05501 12.2826 1.2373 12.4648C1.42415 12.6517 1.70214 12.7451 2.07128 12.7451ZM4.50488 3.44824L4.50488 2.21778C4.50488 1.66179 4.65983 1.24479 4.96972 0.966799C5.27962 0.688805 5.69889 0.549807 6.22754 0.549807L9.50195 0.549808C10.0579 0.549808 10.484 0.688806 10.7803 0.966801C11.0811 1.2448 11.2314 1.66179 11.2314 2.21778L11.2314 3.44141L10.4111 3.44141L10.4111 2.16993C10.4111 1.90105 10.3337 1.69369 10.1787 1.54786C10.0238 1.40202 9.80501 1.32911 9.52246 1.32911L6.21387 1.3291C5.93131 1.3291 5.71256 1.40202 5.55762 1.54785C5.40267 1.69369 5.32519 1.90104 5.32519 2.16992L5.32519 3.44824L4.50488 3.44824Z" fill="white"/>
</svg>
