<svg width="14" height="14" viewBox="0 0 14 14" fill="none" xmlns="http://www.w3.org/2000/svg">
<path d="M3.15625 7.7345C3.04687 7.7345 2.95573 7.69804 2.88281 7.62512C2.81445 7.55221 2.78027 7.46334 2.78027 7.35852C2.78027 7.25826 2.81445 7.17167 2.88281 7.09876C2.95573 7.02584 3.04687 6.98938 3.15625 6.98938L6.49902 6.98938L6.49902 2.56653C6.49902 2.46171 6.53548 2.37513 6.6084 2.30677C6.68131 2.23385 6.7679 2.19739 6.86816 2.19739C6.97754 2.19739 7.0664 2.23385 7.13476 2.30677C7.20768 2.37513 7.24414 2.46171 7.24414 2.56653L7.24414 7.35852C7.24414 7.46334 7.20768 7.55221 7.13476 7.62513C7.0664 7.69804 6.97754 7.7345 6.86816 7.7345L3.15625 7.7345ZM6.875 13.921C5.93619 13.921 5.05208 13.741 4.22265 13.381C3.39778 13.0255 2.66862 12.5333 2.03515 11.9044C1.40625 11.271 0.91178 10.5418 0.551754 9.71692C0.196285 8.88749 0.0185513 8.00338 0.0185515 7.06458C0.0185518 6.12577 0.196286 5.24394 0.551755 4.41907C0.911782 3.58964 1.40625 2.86048 2.03515 2.23157C2.66406 1.59811 3.39095 1.10364 4.21582 0.748171C5.04525 0.388146 5.92936 0.208133 6.86816 0.208133C7.80696 0.208133 8.69108 0.388146 9.52051 0.748173C10.3499 1.10364 11.0791 1.59811 11.708 2.23157C12.3369 2.86048 12.8314 3.58964 13.1914 4.41907C13.5514 5.24394 13.7314 6.12578 13.7314 7.06458C13.7314 8.00338 13.5514 8.8875 13.1914 9.71692C12.8314 10.5418 12.3369 11.271 11.708 11.9044C11.0791 12.5333 10.3499 13.0255 9.5205 13.381C8.69563 13.741 7.8138 13.921 6.875 13.921ZM6.875 13.0392C7.69987 13.0392 8.47233 12.8842 9.19238 12.5743C9.91699 12.2644 10.5527 11.8361 11.0996 11.2892C11.651 10.7423 12.0794 10.1089 12.3848 9.3888C12.6947 8.66419 12.8496 7.88945 12.8496 7.06458C12.8496 6.23971 12.6947 5.46725 12.3848 4.7472C12.0749 4.02259 11.6465 3.38685 11.0996 2.83997C10.5527 2.28854 9.91699 1.86015 9.19238 1.55481C8.47233 1.24492 7.69759 1.08997 6.86816 1.08997C6.04329 1.08997 5.26855 1.24492 4.54394 1.55481C3.82389 1.86015 3.19043 2.28854 2.64355 2.83997C2.10123 3.38684 1.67513 4.02258 1.36523 4.74719C1.05989 5.46725 0.907224 6.23971 0.907223 7.06458C0.907223 7.88945 1.05989 8.66419 1.36523 9.3888C1.67513 10.1088 2.10351 10.7423 2.65039 11.2892C3.19726 11.8361 3.83072 12.2644 4.55078 12.5743C5.27083 12.8842 6.04557 13.0392 6.875 13.0392Z" fill="white"/>
</svg>
