<svg width="14" height="22" viewBox="0 0 14 22" fill="none" xmlns="http://www.w3.org/2000/svg">
<path d="M6.99902 21.5996C6.79492 21.5996 6.6123 21.5137 6.46191 21.3525L0.725586 15.5625C0.585938 15.4229 0.5 15.2188 0.5 15.0361C0.5 14.6064 0.800781 14.3164 1.20898 14.3164C1.42383 14.3164 1.5957 14.3809 1.71387 14.5098L4.45312 17.292L6.35449 19.3867L6.2793 16.9697V5.5293L6.35449 3.1123L4.45312 5.20703L1.71387 7.98926C1.5957 8.11816 1.42383 8.18262 1.20898 8.18262C0.800781 8.18262 0.5 7.89258 0.5 7.46289C0.5 7.28027 0.585938 7.07617 0.725586 6.93652L6.46191 1.14648C6.6123 0.985352 6.79492 0.899414 6.99902 0.899414C7.20312 0.899414 7.38574 0.985352 7.53613 1.14648L13.2832 6.93652C13.4229 7.07617 13.498 7.28027 13.498 7.46289C13.498 7.89258 13.1973 8.18262 12.7891 8.18262C12.5742 8.18262 12.4131 8.11816 12.2842 7.98926L9.55566 5.20703L7.64355 3.1123L7.71875 5.5293V16.9697L7.64355 19.3867L9.55566 17.292L12.2842 14.5098C12.4131 14.3809 12.5742 14.3164 12.7891 14.3164C13.1973 14.3164 13.498 14.6064 13.498 15.0361C13.498 15.2188 13.4229 15.4229 13.2832 15.5625L7.53613 21.3525C7.38574 21.5137 7.20312 21.5996 6.99902 21.5996Z" fill="white"/>
</svg>
