<svg width="18" height="18" viewBox="0 0 18 18" fill="none" xmlns="http://www.w3.org/2000/svg">
<path d="M0.298828 9.24414C0.298828 8.84668 0.631836 8.51367 1.0293 8.51367H8.26953V1.2627C8.26953 0.875977 8.60254 0.542969 9 0.542969C9.39746 0.542969 9.73047 0.875977 9.73047 1.2627V8.51367H16.9814C17.3682 8.51367 17.7012 8.84668 17.7012 9.24414C17.7012 9.6416 17.3682 9.97461 16.9814 9.97461H9.73047V17.2148C9.73047 17.6123 9.39746 17.9453 9 17.9453C8.60254 17.9453 8.26953 17.6123 8.26953 17.2148V9.97461H1.0293C0.631836 9.97461 0.298828 9.6416 0.298828 9.24414Z" fill="white"/>
</svg>
